<svg width="335" height="94" viewBox="0 0 335 94" fill="none" xmlns="http://www.w3.org/2000/svg">
<path d="M217.308 36.0588C216.955 35.5882 216.602 35.2353 214.839 35.1176C214.369 35.1176 212.958 35 210.49 35C204.025 35 199.558 37 197.324 40.8824C197.912 37 194.151 35 185.922 35C176.283 35 170.17 38.8824 167.702 46.7647C166.761 49.7059 166.761 52.0588 167.467 53.9412H165.116C163.353 54.0588 161.002 54.1765 159.473 54.1765C155.947 54.1765 153.713 53.5882 152.891 52.4118C152.185 51.3529 152.185 49.3529 153.126 46.4118C154.654 41.5882 158.298 39.4706 164.175 39.4706C167.232 39.4706 170.17 39.8235 170.17 39.8235C170.523 39.8235 170.758 39.3529 170.758 39L170.641 38.6471L170.406 37C170.288 35.9412 169.465 35.3529 168.055 35.1176C166.761 35 165.704 35 164.293 35C164.293 35 164.293 35 164.175 35C156.535 35 151.127 37.5882 148.189 42.5294C149.247 37.4706 145.72 35 137.609 35C133.025 35 129.733 35.1176 127.853 35.3529C126.324 35.5882 125.384 36.1765 125.031 37.2353L124.326 39.3529C124.209 39.7059 124.444 39.9412 124.914 39.9412C125.267 39.9412 126.677 39.7059 129.028 39.5882C132.202 39.3529 134.435 39.2353 135.964 39.2353C140.43 39.2353 142.429 40.4118 141.723 42.6471C141.606 43.1176 141.253 43.4706 140.665 43.5882C136.434 44.2941 133.025 44.7647 130.556 45.1176C123.503 46.0588 119.389 48.1765 118.331 51.7059C116.803 56.5294 120.565 58.8824 129.616 58.8824C134.083 58.8824 137.962 58.6471 141.018 58.0588C142.781 57.7059 143.722 57.3529 144.074 56.1765L145.72 50.7647C145.603 56.1765 149.247 58.8824 157.005 58.8824C160.296 58.8824 163.47 58.7647 164.998 58.5294C166.526 58.2941 167.349 57.9412 167.702 56.7647L168.055 55.1176C169.7 57.7059 173.344 59 178.869 59C184.747 59 188.155 58.8824 189.096 58.5294C189.919 58.2941 190.389 57.8235 190.624 57.2353C190.624 57.1176 190.624 57 190.742 56.8824L191.447 54.6471C191.564 54.2941 191.329 54.0588 190.859 54.0588L187.098 54.2941C184.629 54.4118 182.631 54.5294 181.22 54.5294C178.516 54.5294 176.753 54.2941 175.695 53.9412C174.167 53.3529 173.462 52.2941 173.579 50.5294L185.452 49C190.742 48.2941 194.386 46.6471 196.149 44.0588L192.035 57.8235C191.917 58.0588 192.035 58.2941 192.152 58.4118C192.27 58.5294 192.505 58.6471 192.975 58.6471H197.912C198.735 58.6471 199.088 58.1765 199.205 57.8235L203.554 42.6471C204.142 40.6471 205.905 39.7059 209.197 39.7059C212.136 39.7059 214.251 39.7059 215.662 39.8235H215.78C216.015 39.8235 216.485 39.7059 216.838 39.1176L217.543 37C217.543 36.6471 217.543 36.2941 217.308 36.0588ZM138.079 54.1765C136.551 54.4118 134.318 54.5294 131.497 54.5294C126.442 54.5294 124.326 53.4706 124.914 51.4706C125.384 50.0588 126.677 49.1176 128.793 48.8824L140.195 47.3529L138.079 54.1765ZM190.624 41.9412C190.154 43.4706 187.92 44.5294 183.924 45.1176L174.402 46.4118L174.637 45.5882C175.46 43 176.518 41.3529 177.929 40.4118C179.339 39.4706 181.69 39 184.982 39C189.331 39.1176 191.212 40.0588 190.624 41.9412Z" fill="#756C66"/>
</svg>
