<svg width="1em" height="1em" viewBox="0 0 28 28" fill="none" xmlns="http://www.w3.org/2000/svg"><path d="M12.5154 27.9325C11.3802 27.9122 10.2936 27.4637 9.4686 26.675C9.14526 26.3858 8.84581 26.0704 8.57322 25.7319C8.26734 25.8743 7.94594 25.9799 7.61566 26.0463C3.48695 26.8133 1.29824 22.4625 0.676448 20.0482C0.603888 19.7564 0.648943 19.4474 0.8017 19.1892C0.954458 18.931 1.20241 18.7447 1.491 18.6713C1.77959 18.5979 2.08519 18.6435 2.34056 18.7979C2.59593 18.9524 2.78016 19.2031 2.85272 19.4949C2.85272 19.4949 4.09631 24.3739 7.15553 23.7703H7.3545C6.19105 20.809 6.02927 17.5417 6.89438 14.4777C7.9763 9.90054 10.1277 6.93294 12.789 6.12817C13.4776 5.91976 14.2092 5.90444 14.9057 6.08384C15.6023 6.26323 16.2375 6.63061 16.7436 7.14671C18.0742 8.52991 18.2732 10.8562 17.3281 13.8741C15.9669 17.9164 13.6236 21.5483 10.5132 24.4367C10.6622 24.6125 10.8243 24.7765 10.9982 24.9271C12.8263 26.5744 14.6295 25.1912 17.726 21.6703C18.2359 21.1045 18.696 20.5763 19.1561 20.1237C19.5632 19.6228 20.0822 19.227 20.6703 18.969C21.2585 18.711 21.8989 18.5982 22.5387 18.6399C22.9586 18.6988 23.36 18.8526 23.7131 19.0899C24.0661 19.3272 24.3618 19.6418 24.5782 20.0105C24.9207 20.7343 25.1353 21.5131 25.2124 22.3116C25.2636 22.6829 25.3469 23.049 25.4611 23.4056C25.668 23.3655 25.8687 23.2978 26.058 23.2044C26.3301 23.081 26.6396 23.072 26.9183 23.1793C27.197 23.2866 27.4221 23.5014 27.5441 23.7766C27.6662 24.0517 27.6751 24.3646 27.569 24.6464C27.4629 24.9282 27.2504 25.1558 26.9783 25.2792C26.5842 25.4998 26.1465 25.629 25.697 25.6572C25.2474 25.6855 24.7973 25.6122 24.3792 25.4427C23.9646 25.1173 23.6299 24.6995 23.4012 24.2218C23.1726 23.7442 23.0561 23.2195 23.061 22.6889C23.0026 22.1553 22.8642 21.6337 22.6506 21.1422C22.6056 21.0742 22.5469 21.0166 22.4783 20.9733C22.4097 20.9299 22.3328 20.9018 22.2527 20.8907C21.8796 20.8907 21.3448 21.1548 20.7728 21.7332C20.2007 22.3116 19.9147 22.6511 19.4422 23.1919C17.6141 25.1912 15.1891 27.9325 12.5154 27.9325ZM13.9206 8.2407C13.7265 8.23914 13.5334 8.26886 13.3486 8.32872C12.6646 8.51734 10.3391 9.58617 9.04578 15.0058C8.38073 17.4596 8.46745 20.0596 9.2945 22.4625C11.9463 19.8844 13.9503 16.7026 15.1394 13.1825C15.7985 11.0825 15.786 9.41013 15.1394 8.71853C14.9817 8.55554 14.7914 8.42856 14.5812 8.34614C14.371 8.26372 14.1457 8.22777 13.9206 8.2407Z" fill="currentColor"></path><path d="M22.2413 7.52346C21.9471 7.53261 21.6611 7.42419 21.4454 7.22167L19.3313 5.09657C19.2243 4.98841 19.1395 4.86001 19.0816 4.71869C19.0237 4.57737 18.9939 4.4259 18.9939 4.27294C18.9939 4.11998 19.0237 3.96851 19.0816 3.82719C19.1395 3.68587 19.2243 3.55747 19.3313 3.44931C19.4383 3.34115 19.5653 3.25535 19.705 3.19681C19.8448 3.13827 19.9946 3.10815 20.1458 3.10815C20.2971 3.10815 20.4469 3.13827 20.5867 3.19681C20.7264 3.25535 20.8534 3.34115 20.9604 3.44931L22.204 4.70676L25.7109 1.27391C25.8141 1.16591 25.9378 1.08002 26.0745 1.02136C26.2112 0.962695 26.3583 0.932465 26.5068 0.932465C26.6553 0.932465 26.8023 0.962695 26.9391 1.02136C27.0758 1.08002 27.1995 1.16591 27.3027 1.27391C27.5123 1.48814 27.6298 1.77733 27.6298 2.07868C27.6298 2.38003 27.5123 2.66922 27.3027 2.88345L23.0621 7.22167C22.838 7.42687 22.5434 7.5352 22.2413 7.52346Z" fill="currentColor"></path></svg>