<svg width="335" height="94" viewBox="0 0 335 94" fill="none" xmlns="http://www.w3.org/2000/svg">
<path d="M171.126 57.9523V53.7987L171.126 53.798H162.819V37.4813H158.072V57.9523H171.126Z" fill="#756C66"/>
<path fill-rule="evenodd" clip-rule="evenodd" d="M120.097 44.9017L131.667 36L131.667 36.0009L134.932 38.6686L123.954 46.9758L126.328 49.0526L137.306 40.4517L140.568 43.1194L134.932 47.5702L129.59 51.7239L131.964 53.8007L142.942 44.8981V37.1852H147.69V53.5026H156.291V57.6562H143.239V49.9434L131.666 58.8415L120.097 49.9434C119.207 54.3935 115.054 57.6562 110.307 57.6562H102V37.1852H110.307C115.054 37.1852 118.91 40.4515 120.097 44.9017ZM110.011 41.3388H106.451V53.7962H110.01C110.826 53.7962 111.585 53.6134 112.266 53.2841C112.948 52.955 113.552 52.484 114.053 51.9091C114.554 51.3344 114.95 50.6553 115.224 49.9183C115.498 49.1813 115.647 48.3853 115.647 47.5694C115.647 46.6793 115.481 45.8425 115.185 45.0915C114.888 44.3405 114.461 43.6747 113.942 43.1185C113.423 42.5622 112.812 42.1174 112.145 41.8115C111.477 41.5056 110.752 41.3388 110.011 41.3388Z" fill="#756C66"/>
<path d="M233.999 51.7904C233.372 56.1827 230.109 58.1907 226.093 58.1907L226.092 58.1913C221.198 58.1913 216.805 54.6773 216.805 47.5239C216.805 40.6215 221.198 37.1076 226.092 37.1076C230.234 37.1076 233.372 39.241 233.999 43.257L233.748 43.5076H232.619L232.368 43.2566C231.74 40.37 229.732 38.6131 226.218 38.6131C221.952 38.6131 218.689 41.8759 218.689 47.6489C218.689 53.4218 221.826 56.6848 226.218 56.6848C229.732 56.6848 231.74 54.9277 232.368 51.7904L232.619 51.5394H233.748L233.999 51.7904Z" fill="#756C66"/>
<path d="M213.292 37.7339V57.5632L212.915 57.8142H211.786L211.535 57.5632V40.7464H211.158L203.88 57.5632L203.629 57.8142H202.123L201.872 57.5632L194.593 40.7464H194.342V57.5632L194.091 57.8142H192.961L192.71 57.5632V37.7339L192.961 37.4829H194.969L195.22 37.7339L203.001 55.4292H203.252L210.782 37.7339L211.033 37.4829H213.041L213.292 37.7339Z" fill="#756C66"/>
<path d="M188.821 56.6847V57.5638L188.57 57.8148H176.02L175.769 57.5638V37.7345L176.02 37.4835H188.57L188.821 37.7345V38.7385L188.57 38.9895H177.777L177.526 39.2404V46.6449L177.777 46.8959H187.942L188.193 47.1469V48.1509L187.942 48.4019H177.777L177.526 48.6529V56.1827L177.777 56.4337H188.57L188.821 56.6847Z" fill="#756C66"/>
</svg>
