<?xml version="1.0" encoding="utf-8"?>
<!-- Generator: Adobe Illustrator 24.1.0, SVG Export Plug-In . SVG Version: 6.00 Build 0)  -->
<svg  width="335" height="94" version="1.1" id="Layer_1" xmlns="http://www.w3.org/2000/svg" xmlns:xlink="http://www.w3.org/1999/xlink" x="0px" y="0px"
	 viewBox="0 0 335 95" style="enable-background:new 0 0 335 95;" xml:space="preserve">
<style type="text/css">
	.st0{fill:#756C66;}
	.st1{fill:none;stroke:#606060;stroke-miterlimit:10;}
</style>
<g>
	<path class="st0" d="M165.34,60.6c-0.43-0.08-0.87-0.15-1.29-0.26c-1.6-0.41-2.98-1.17-4-2.5c-0.55-0.72-0.89-1.53-1.06-2.41
		c-0.01-0.05,0-0.09-0.01-0.16c0.08,0,0.15,0,0.21,0c1.51,0,3.02,0,4.53,0c0.14,0,0.22,0.03,0.29,0.16
		c0.23,0.41,0.58,0.69,1.01,0.88c0.86,0.37,1.72,0.41,2.58,0.03c0.61-0.26,0.96-0.74,0.99-1.4c0.03-0.56,0.01-1.13,0.01-1.71
		c-0.04,0.02-0.07,0.02-0.1,0.04c-0.92,0.74-1.99,0.98-3.14,0.9c-1.69-0.11-3.12-0.79-4.28-2.03c-0.99-1.05-1.52-2.32-1.7-3.75
		c-0.17-1.37-0.07-2.71,0.48-3.99c0.93-2.13,2.55-3.4,4.87-3.7c1.4-0.18,2.7,0.15,3.77,1.14c0.02,0.02,0.04,0.03,0.1,0.07
		c0-0.49,0-0.95,0-1.42c1.39,0,2.75,0,4.14,0c0,0.09,0,0.18,0,0.27c0,4.89,0,9.77,0,14.66c0,1.66-0.7,2.96-2.03,3.92
		c-0.95,0.69-2.04,1.04-3.19,1.2c-0.07,0.01-0.13,0.03-0.2,0.05C166.66,60.6,166,60.6,165.34,60.6z M166.01,44.77
		c-1.49,0-2.68,1.2-2.67,2.7c0,1.49,1.19,2.68,2.67,2.68c1.48,0,2.71-1.21,2.71-2.68C168.73,45.99,167.51,44.77,166.01,44.77z"/>
	<path class="st0" d="M117.5,35.91c0.41,0,0.81,0.01,1.22,0.01c1.05,0,2.11,0,3.16,0c0.08,0,0.16,0,0.26,0c0,4.25,0,8.47,0,12.72
		c1.72,0,3.41,0,5.13,0c0,1.63,0,3.23,0,4.84c-0.04,0.01-0.08,0.02-0.12,0.02c-3.22,0-6.43,0-9.65,0
		C117.5,47.64,117.5,41.77,117.5,35.91z"/>
	<path class="st0" d="M217.5,54.37c-1.43,0-2.84,0-4.28,0c0-0.38,0-0.75,0-1.15c-0.22,0.15-0.41,0.28-0.61,0.4
		c-1.1,0.69-2.3,0.76-3.52,0.47c-1.88-0.44-3.17-1.63-3.89-3.39c-0.99-2.41-0.91-4.8,0.47-7.04c1.18-1.92,2.99-2.75,5.22-2.71
		c0.72,0.01,1.47,0.27,2.33,0.73c0-2.09,0-4.17,0-6.26c1.44,0,2.86,0,4.29,0C217.5,41.73,217.5,48.04,217.5,54.37z M210.91,50.26
		c1.54-0.09,2.67-1.33,2.59-2.83c-0.08-1.46-1.36-2.63-2.77-2.55c-1.51,0.09-2.68,1.36-2.59,2.81
		C208.23,49.19,209.48,50.35,210.91,50.26z"/>
	<path class="st0" d="M158.51,50.01c-0.12,0.32-0.22,0.64-0.36,0.94c-0.95,2.11-2.54,3.42-4.85,3.76c-2.09,0.3-4.02-0.13-5.64-1.56
		c-1.03-0.9-1.67-2.05-2.02-3.37c-0.45-1.71-0.54-3.43,0.06-5.12c0.91-2.58,2.72-4.2,5.44-4.59c2.55-0.36,4.63,0.6,6.18,2.66
		c0.91,1.22,1.35,2.62,1.44,4.13c0.03,0.56,0.01,1.12,0.01,1.71c-3.02,0-6,0-9.01,0c0.04,0.9,0.38,1.61,1.16,2.04
		c0.89,0.49,1.82,0.45,2.71,0c0.22-0.11,0.38-0.33,0.56-0.5c0.06-0.05,0.13-0.12,0.19-0.12c1.34-0.01,2.69,0,4.03,0
		C158.43,49.99,158.45,50,158.51,50.01z M154.29,45.66c-0.09-1.18-1.2-2.1-2.44-2.03c-1.1,0.06-2.16,1.08-2.11,2.03
		C151.25,45.66,152.76,45.66,154.29,45.66z"/>
	<path class="st0" d="M192.18,54.38c0-4.64,0-9.25,0-13.87c1.41,0,2.8,0,4.22,0c0,0.43,0,0.84,0,1.31c0.14-0.08,0.23-0.14,0.33-0.2
		c0.86-0.51,1.77-0.88,2.77-1.02c1.92-0.26,3.75,0.96,4.17,2.81c0.05,0.21,0.07,0.44,0.07,0.65c0,3.37,0,6.73,0,10.1
		c0,0.07-0.01,0.13-0.01,0.21c-1.39,0-2.76,0-4.16,0c0-0.1,0-0.18,0-0.27c0-2.6,0-5.2-0.01-7.8c0-0.27-0.05-0.57-0.16-0.82
		c-0.33-0.75-1.31-1.04-2.13-0.66c-0.51,0.24-0.81,0.65-0.86,1.22c-0.01,0.13-0.02,0.26-0.02,0.39c0,2.56,0,5.12,0,7.68
		c0,0.28,0,0.28-0.28,0.28c-1.23,0-2.45,0-3.68,0C192.36,54.38,192.28,54.38,192.18,54.38z"/>
	<path class="st0" d="M186.98,45.18c0.12-0.82-0.43-1.55-1.32-1.67c-0.61-0.08-1.24-0.05-1.85-0.07c-0.18,0-0.37,0.02-0.58,0.03
		c0-1.07,0-2.12,0-3.18c0.04-0.01,0.08-0.02,0.12-0.02c0.99,0,1.97-0.02,2.95,0.02c0.84,0.04,1.67,0.21,2.44,0.55
		c1.52,0.67,2.38,1.83,2.41,3.52c0.03,1.66,0.01,3.33,0.01,5c0,1.58,0,3.15,0,4.73c0,0.08,0,0.16,0,0.26c-1.34,0-2.66,0-4,0
		c0-0.27,0-0.54,0-0.85c-0.09,0.06-0.15,0.09-0.21,0.13c-2.1,1.33-5.19,0.62-6.44-1.47c-0.36-0.6-0.55-1.26-0.6-1.95
		c-0.08-1.03,0-2.05,0.43-3.01c0.68-1.53,1.91-2.34,3.53-2.58c1.04-0.15,2.03,0.04,2.97,0.5C186.88,45.14,186.92,45.16,186.98,45.18
		z M187.21,49.28c0-0.99-0.82-1.81-1.8-1.8c-0.98,0.01-1.8,0.84-1.79,1.82c0.01,0.98,0.82,1.77,1.81,1.77
		C186.41,51.07,187.21,50.26,187.21,49.28z"/>
	<path class="st0" d="M134.33,53.48c-1.55,0-3.08,0-4.64,0c0-4.24,0-8.47,0-12.72c-1.72,0-3.41,0-5.12,0c0-1.62,0-3.22,0-4.84
		c3.25,0,6.5,0,9.76,0C134.33,41.77,134.33,47.62,134.33,53.48z"/>
	<path class="st0" d="M144.57,35.43c0,0.1,0,0.18,0,0.26c0,6.14,0,12.28,0,18.41c0,0.28,0,0.28-0.28,0.28c-1.19,0-2.38,0-3.58,0
		c-0.08,0-0.16,0-0.25,0c0-6.33,0-12.63,0-18.95C141.82,35.43,143.18,35.43,144.57,35.43z"/>
	<path class="st0" d="M173.83,40.53c1.47,0,2.92,0,4.4,0c0,0.46,0,0.9,0,1.39c1.17-0.94,2.42-1.61,3.94-1.66c0,1.11,0,2.2,0,3.29
		c-0.39,0.09-0.78,0.17-1.16,0.28c-0.63,0.19-1.21,0.49-1.7,0.94c-0.76,0.69-1.07,1.57-1.07,2.59c0,2.25,0,4.5,0,6.75
		c0,0.08,0,0.16,0,0.26c-1.48,0-2.93,0-4.4,0C173.83,49.75,173.83,45.15,173.83,40.53z"/>
	<path class="st0" d="M129.04,55.03c-0.37,0-0.72,0-1.1,0c0-2.13,0-4.25,0-6.39c0.36,0,0.72,0,1.1,0
		C129.04,50.76,129.04,52.88,129.04,55.03z"/>
	<path class="st0" d="M122.79,34.4c0.37,0,0.73,0,1.11,0c0,2.12,0,4.24,0,6.37c-0.36,0-0.73,0-1.11,0
		C122.79,38.64,122.79,36.52,122.79,34.4z"/>
</g>
</svg>
