<svg width="335" height="94" viewBox="0 0 335 94" fill="none" xmlns="http://www.w3.org/2000/svg">
<path d="M122.4 35H111V46.4H122.4V35Z" fill="#756C66"/>
<path d="M157.8 39.7999V54.1999H155.3V42.8999H155.267L150.8 54.1999H149.133L144.567 42.8999H144.533V54.1999H142.233V39.7999H145.833L149.967 50.4666H150.033L154.4 39.7999H157.8Z" fill="#756C66"/>
<path d="M159.867 40.9C159.867 40.5 160 40.1666 160.3 39.8999C160.6 39.6333 160.933 39.4999 161.333 39.4999C161.767 39.4999 162.133 39.6333 162.4 39.8999C162.667 40.1666 162.833 40.5 162.833 40.9C162.833 41.2999 162.7 41.6333 162.4 41.9C162.1 42.1666 161.767 42.2999 161.333 42.2999C160.9 42.2999 160.567 42.1666 160.3 41.9C160.033 41.5999 159.867 41.2666 159.867 40.9Z" fill="#756C66"/>
<path d="M162.567 43.8666V54.1999H160.133V43.8666H162.567Z" fill="#756C66"/>
<path d="M169.933 52.4333C170.3 52.4333 170.7 52.3666 171.133 52.1666C171.567 51.9999 171.967 51.7666 172.333 51.4999V53.7666C171.933 53.9999 171.5 54.1666 171 54.2666C170.5 54.3666 169.967 54.4333 169.367 54.4333C167.833 54.4333 166.6 53.9666 165.667 52.9999C164.7 52.0333 164.233 50.7999 164.233 49.3333C164.233 47.6666 164.733 46.2999 165.7 45.2333C166.667 44.1666 168.033 43.6333 169.833 43.6333C170.3 43.6333 170.767 43.6999 171.2 43.7999C171.667 43.8999 172.033 44.0666 172.3 44.2V46.5333C171.933 46.2666 171.533 46.0333 171.167 45.8999C170.767 45.7666 170.367 45.6666 169.967 45.6666C169 45.6666 168.233 45.9666 167.633 46.5999C167.033 47.2333 166.767 48.0666 166.767 49.1333C166.767 50.1666 167.067 50.9999 167.633 51.5666C168.2 52.1333 168.967 52.4333 169.933 52.4333Z" fill="#756C66"/>
<path d="M179.233 43.6999C179.433 43.6999 179.6 43.6999 179.767 43.7333C179.933 43.7666 180.067 43.7999 180.167 43.8333V46.2999C180.033 46.1999 179.867 46.0999 179.6 46.0333C179.333 45.9666 179.067 45.8999 178.7 45.8999C178.1 45.8999 177.6 46.1666 177.2 46.6666C176.8 47.1666 176.567 47.9333 176.567 48.9999V54.1999H174.133V43.8666H176.567V45.4999H176.6C176.833 44.9333 177.167 44.4999 177.6 44.1666C178.067 43.8666 178.6 43.6999 179.233 43.6999Z" fill="#756C66"/>
<path fill-rule="evenodd" clip-rule="evenodd" d="M180.3 49.1999C180.3 47.4999 180.8 46.1333 181.733 45.1333C182.7 44.1333 184.033 43.6333 185.733 43.6333C187.333 43.6333 188.6 44.0999 189.5 45.0666C190.4 46.0333 190.867 47.3333 190.867 48.9666C190.867 50.6333 190.367 51.9666 189.433 52.9666C188.467 53.9666 187.167 54.4666 185.5 54.4666C183.9 54.4666 182.633 53.9999 181.7 53.0666C180.767 52.0999 180.3 50.7999 180.3 49.1999ZM182.833 49.0999C182.833 50.1666 183.067 50.9999 183.567 51.5666C184.067 52.1333 184.767 52.4333 185.667 52.4333C186.533 52.4333 187.233 52.1666 187.7 51.5666C188.167 50.9999 188.4 50.1666 188.4 49.0333C188.4 47.9333 188.167 47.0999 187.7 46.4999C187.233 45.9333 186.533 45.6333 185.7 45.6333C184.8 45.6333 184.133 45.9333 183.633 46.5333C183.067 47.1666 182.833 47.9999 182.833 49.0999Z" fill="#756C66"/>
<path d="M194.5 46.5999C194.5 46.9333 194.6 47.2333 194.833 47.4333C195.067 47.6333 195.533 47.8666 196.3 48.1666C197.267 48.5666 197.967 48.9999 198.333 49.4666C198.733 49.9666 198.933 50.5333 198.933 51.2333C198.933 52.1999 198.567 52.9666 197.8 53.5666C197.067 54.1666 196.033 54.4333 194.767 54.4333C194.333 54.4333 193.867 54.3666 193.333 54.2666C192.8 54.1666 192.367 54.0333 192 53.8666V51.4666C192.433 51.7666 192.933 52.0333 193.433 52.1999C193.933 52.3666 194.4 52.4666 194.833 52.4666C195.367 52.4666 195.8 52.3999 196.033 52.2333C196.3 52.0666 196.433 51.8333 196.433 51.4666C196.433 51.1333 196.3 50.8666 196.033 50.5999C195.767 50.3666 195.233 50.0999 194.5 49.7999C193.6 49.4333 192.967 48.9999 192.6 48.5333C192.233 48.0666 192.033 47.4666 192.033 46.7333C192.033 45.7999 192.4 45.0333 193.133 44.4333C193.867 43.8333 194.833 43.5333 196 43.5333C196.367 43.5333 196.767 43.5666 197.2 43.6666C197.633 43.7666 198.033 43.8666 198.333 43.9666V46.3333C198 46.1333 197.633 45.9333 197.2 45.7666C196.767 45.5999 196.333 45.5333 195.933 45.5333C195.467 45.5333 195.1 45.6333 194.867 45.7999C194.633 46.0333 194.5 46.2666 194.5 46.5999Z" fill="#756C66"/>
<path fill-rule="evenodd" clip-rule="evenodd" d="M199.967 49.1999C199.967 47.4999 200.467 46.1333 201.4 45.1333C202.367 44.1333 203.7 43.6333 205.4 43.6333C207 43.6333 208.267 44.0999 209.167 45.0666C210.067 46.0333 210.533 47.3333 210.533 48.9666C210.533 50.6333 210.033 51.9666 209.1 52.9666C208.133 53.9666 206.833 54.4666 205.167 54.4666C203.567 54.4666 202.3 53.9999 201.367 53.0666C200.467 52.0999 199.967 50.7999 199.967 49.1999ZM202.5 49.0999C202.5 50.1666 202.733 50.9999 203.233 51.5666C203.733 52.1333 204.433 52.4333 205.333 52.4333C206.2 52.4333 206.9 52.1666 207.367 51.5666C207.833 50.9999 208.067 50.1666 208.067 49.0333C208.067 47.9333 207.833 47.0999 207.367 46.4999C206.9 45.9333 206.2 45.6333 205.367 45.6333C204.467 45.6333 203.8 45.9333 203.3 46.5333C202.767 47.1666 202.5 47.9999 202.5 49.0999Z" fill="#756C66"/>
<path d="M218.633 45.8666H215V54.1999H212.533V45.8666H210.8V43.8666H212.533V42.4333C212.533 41.3666 212.9 40.4666 213.6 39.7666C214.3 39.0666 215.2 38.7333 216.3 38.7333C216.459 38.7333 216.609 38.7427 216.75 38.7515C216.874 38.7593 216.991 38.7666 217.1 38.7666C217.333 38.7666 217.533 38.8333 217.7 38.9V40.9999C217.633 40.9666 217.467 40.8999 217.267 40.8333C217.067 40.7666 216.833 40.7333 216.567 40.7333C216.067 40.7333 215.667 40.9 215.4 41.2C215.133 41.4999 215 41.9999 215 42.5999V43.8333H218.633V41.4999L221.067 40.7666V43.8333H223.533V45.8333H221.067V50.6666C221.067 51.2999 221.2 51.7333 221.4 51.9999C221.633 52.2666 222 52.3999 222.5 52.3999C222.633 52.3999 222.8 52.3666 223 52.2999C223.2 52.2333 223.367 52.1666 223.5 52.0666V54.0666C223.333 54.1666 223.1 54.2333 222.733 54.2999C222.367 54.3666 222.033 54.3999 221.667 54.3999C220.633 54.3999 219.867 54.1333 219.367 53.5999C218.867 53.0666 218.6 52.2333 218.6 51.1333L218.633 45.8666Z" fill="#756C66"/>
<path d="M123.6 35H135V46.4H123.6V35Z" fill="#756C66"/>
<path d="M122.4 47.6H111V59H122.4V47.6Z" fill="#756C66"/>
<path d="M123.6 47.6H135V59H123.6V47.6Z" fill="#756C66"/>
</svg>
