<svg width="335" height="94" viewBox="0 0 335 94" fill="none" xmlns="http://www.w3.org/2000/svg">
<path d="M157.393 50.0134H167.553L162.187 41.3467L152.32 57H147.833L159.833 38.22C160.095 37.8453 160.443 37.5387 160.847 37.3259C161.252 37.1131 161.701 37.0004 162.158 36.9971C162.615 36.9939 163.066 37.1002 163.474 37.3072C163.881 37.5141 164.233 37.8157 164.5 38.1867L176.533 57H172.047L169.933 53.5H159.653L157.413 50.0134M204.033 53.5V37.1867H200.22V55.1067C200.219 55.3557 200.269 55.6023 200.367 55.8315C200.464 56.0607 200.607 56.2677 200.787 56.44C200.967 56.6247 201.183 56.7712 201.421 56.8708C201.659 56.9705 201.915 57.0212 202.173 57.02H219.507L221.767 53.52H204.013M140.987 50.5867C142.764 50.5867 144.468 49.8808 145.724 48.6243C146.981 47.3678 147.687 45.6636 147.687 43.8867C147.687 42.1097 146.981 40.4056 145.724 39.1491C144.468 37.8926 142.764 37.1867 140.987 37.1867H124.32V57H128.127V40.6934H140.753C141.604 40.6934 142.42 41.0312 143.021 41.6326C143.622 42.2339 143.96 43.0496 143.96 43.9C143.96 44.7505 143.622 45.5661 143.021 46.1675C142.42 46.7689 141.604 47.1067 140.753 47.1067H130.013L141.387 57H146.913L139.273 50.5867H140.987ZM100.907 57H112.42C115.002 56.933 117.456 55.8603 119.259 54.0103C121.061 52.1604 122.07 49.6796 122.07 47.0967C122.07 44.5138 121.061 42.033 119.259 40.1831C117.456 38.3331 115.002 37.2604 112.42 37.1934H100.907C99.5847 37.1591 98.269 37.3898 97.0375 37.8721C95.806 38.3544 94.6835 39.0784 93.7362 40.0014C92.7889 40.9244 92.0361 42.0277 91.522 43.2463C91.008 44.4649 90.7432 45.7741 90.7432 47.0967C90.7432 48.4193 91.008 49.7285 91.522 50.9471C92.0361 52.1657 92.7889 53.269 93.7362 54.192C94.6835 55.115 95.806 55.839 97.0375 56.3213C98.269 56.8036 99.5847 57.0343 100.907 57M112.16 53.5134H101.16C99.4959 53.4597 97.9177 52.7608 96.7595 51.5646C95.6012 50.3683 94.9535 48.7685 94.9535 47.1034C94.9535 45.4382 95.6012 43.8384 96.7595 42.6421C97.9177 41.4459 99.4959 40.747 101.16 40.6934H112.16C113.019 40.6657 113.875 40.8109 114.677 41.1206C115.479 41.4303 116.211 41.898 116.828 42.4959C117.446 43.0939 117.937 43.8099 118.272 44.6014C118.607 45.3929 118.78 46.2438 118.78 47.1034C118.78 47.963 118.607 48.8138 118.272 49.6053C117.937 50.3968 117.446 51.1128 116.828 51.7108C116.211 52.3088 115.479 52.7765 114.677 53.0861C113.875 53.3958 113.019 53.5411 112.16 53.5134M184.487 57H196.24L198.467 53.5134H184.747C183.888 53.5411 183.032 53.3958 182.23 53.0861C181.428 52.7765 180.696 52.3088 180.079 51.7108C179.461 51.1128 178.97 50.3968 178.635 49.6053C178.3 48.8138 178.127 47.963 178.127 47.1034C178.127 46.2438 178.3 45.3929 178.635 44.6014C178.97 43.8099 179.461 43.0939 180.079 42.4959C180.696 41.898 181.428 41.4303 182.23 41.1206C183.032 40.8109 183.888 40.6657 184.747 40.6934H195.913L198.167 37.1934H184.487C183.165 37.1591 181.849 37.3898 180.617 37.8721C179.386 38.3544 178.263 39.0784 177.316 40.0014C176.369 40.9244 175.616 42.0277 175.102 43.2463C174.588 44.4649 174.323 45.7741 174.323 47.0967C174.323 48.4193 174.588 49.7285 175.102 50.9471C175.616 52.1657 176.369 53.269 177.316 54.192C178.263 55.115 179.386 55.839 180.617 56.3213C181.849 56.8036 183.165 57.0343 184.487 57M231.067 53.5134C229.67 53.5139 228.311 53.0584 227.197 52.2161C226.083 51.3738 225.274 50.1907 224.893 48.8467H241.173L243.413 45.3534H224.893C225.273 44.0088 226.081 42.8251 227.196 41.9826C228.31 41.1402 229.67 40.6851 231.067 40.6867H242.24L244.473 37.1867H230.807C228.225 37.2537 225.771 38.3265 223.968 40.1764C222.166 42.0263 221.157 44.5071 221.157 47.09C221.157 49.6729 222.166 52.1537 223.968 54.0037C225.771 55.8536 228.225 56.9264 230.807 56.9934H242.56L244.793 53.5067H231.06" fill="#756C66"/>
</svg>
