<svg width="456" height="332" viewBox="0 0 456 332" fill="none" xmlns="http://www.w3.org/2000/svg">
<path d="M9.06557 198.272C14.1847 197.736 17.9826 194.814 22.3372 191.775C21.5533 198.368 15.2733 206.043 10.6633 207.046C5.91938 208.079 1.7621 205.08 1.04515 199.604C0.257049 192.898 1.36468 186.042 4.15605 180.35C14.1709 158.82 26.5526 139.386 40.8935 122.687C48.0719 114.144 54.4312 104.867 62.2085 96.8652C92.6836 65.5185 126.31 38.3278 165.36 18.5557C178.185 11.686 191.445 6.34063 204.985 2.58266C218.507 -0.843289 231.719 -1.04153 244.402 5.8337C253.069 10.5307 258.236 17.9447 260.279 27.4226C263.3 41.4342 260.947 55.1007 256.467 68.4337C252.679 79.9128 247.517 90.5078 241.18 99.8107C244.972 98.5731 248.624 96.6778 252.042 94.1739C256.376 91.2208 260.979 89.0145 265.736 87.6088C273.418 85.3163 278.198 89.8687 276.387 97.7607C275.631 100.114 274.723 102.377 273.674 104.524C273.001 106.25 271.141 107.533 271.715 109.823C273.982 110.522 275.201 108.612 276.762 107.724C285.816 102.593 294.73 97.187 304.709 93.964C306.088 93.5209 307.466 93.0311 308.881 92.7443C317.731 90.9741 323.026 96.7089 320.507 105.571C318.983 110.541 316.661 115.012 313.702 118.676C316.482 118.883 317.609 116.912 319.395 116.392C321.462 115.791 323.22 115.779 324.451 117.829C325.816 120.101 324.585 121.665 322.755 122.622C313.939 127.421 305.711 133.925 298.338 141.923C297.391 143.092 296.202 143.861 294.924 144.13C293.645 144.4 292.335 144.157 291.161 143.434C288.11 141.372 288.843 138.364 290.058 135.554C291.931 131.07 294.461 127.126 297.499 123.953C302.285 118.78 306.539 112.799 310.152 106.164C310.75 105.13 311.572 103.925 310.868 102.749C309.904 101.138 308.322 101.725 307.001 102.241C302.912 103.566 298.891 105.23 294.961 107.225C278.876 116.651 263.03 126.465 249.028 139.005C246.526 141.014 243.917 142.78 241.222 144.287C240.221 145.106 239.057 145.507 237.882 145.436C236.707 145.365 235.575 144.827 234.634 143.891C232.596 141.678 233.329 139.46 234.884 137.282C237.648 133.403 240.719 129.93 244.044 126.922C251.234 120.093 257.873 112.302 263.857 103.673C264.735 102.588 265.469 101.314 266.025 99.904C266.652 98.0149 265.578 97.0634 263.765 97.5275C262.409 97.9424 261.092 98.5556 259.839 99.3559C251.475 104.216 243.373 109.538 234.606 113.694C231.811 115.259 229.34 117.687 227.399 120.775C212.77 140.423 196.149 157.282 178.012 170.87C168.415 178.22 157.706 184.072 147.826 191.068C131.716 202.48 114.131 211.013 96.2772 219.094C91.0625 221.257 85.7117 222.795 80.2892 223.691C76.9566 224.354 73.5536 224.001 70.3399 222.658C64.1145 220.092 61.2678 215.789 61.7804 208.947C62.4697 200.291 65.1571 192.128 69.4767 185.567C75.2105 177.17 81.4045 169.346 88.0084 162.157C104.715 142.674 124.039 126.192 144.609 111.098C152.525 105.199 160.752 100.064 169.227 95.7341C173.629 93.4516 178.221 91.8763 182.906 91.0417C191.069 89.6984 195.094 92.7302 196.515 101.049C197.44 106.464 198.101 106.956 202.836 104.153C209.861 99.6057 217.621 97.4054 225.437 97.7444C227.674 98.0942 229.94 97.6076 231.979 96.3398C234.018 95.0719 235.748 93.0734 236.973 90.5707C242.011 80.0269 247.333 69.6791 250.287 58.2118C252.454 49.8223 253.235 40.915 252.577 32.0916C251.908 22.5577 245.054 14.5467 235.333 11.7434C222.234 7.96762 209.391 9.929 196.958 14.542C172.382 23.6903 148.672 36.5069 126.284 52.7453C110.55 64.4247 95.2772 77.1585 80.5235 90.8972C67.0287 103.489 54.4231 117.673 42.8612 133.275C34.7369 143.893 26.4998 154.418 19.7441 166.023C16.0413 172.459 12.7045 179.251 9.76137 186.341C8.13897 190.196 7.25465 194.142 9.07611 198.282M218.81 107.094C215.405 107.339 212.068 108.457 208.984 110.385C202.942 113.76 197.046 117.575 191.322 121.812C186.862 125.189 182.877 129.065 178.807 132.872C177.024 134.539 174.931 136.034 172.352 134.229C170.034 132.596 169.608 129.564 171.544 126.388C172.943 124.358 174.438 122.448 176.02 120.667C179.481 116.294 183.335 112.197 185.678 107.024C186.365 105.506 187.306 103.794 185.999 102.225C184.741 100.713 182.89 101.131 181.243 101.415C177.981 102.063 174.788 103.218 171.73 104.858C158.32 111.878 145.423 120.511 133.203 130.649C116.033 144.192 100.064 160.24 85.595 178.493C79.7537 185.977 73.819 193.517 71.2013 202.818C68.3141 213.079 72.2582 216.344 80.9568 214.117C88.3525 212.282 95.6169 209.617 102.672 206.153C118.554 198.508 134.06 189.56 149.101 179.361C163.166 169.517 177.896 160.715 190.833 149.194C202.144 139.119 211.353 127.272 220.91 115.667C221.498 114.922 222.029 114.101 222.495 113.216C224.678 109.251 223.63 107.309 218.796 107.082" fill="#6C6BFB" fill-opacity="0.1"/>
<path d="M225.971 191.581C217.737 190.299 211.055 193.841 204.266 196.449C191.688 201.551 179.345 207.625 167.303 214.64C154.029 222.311 141.215 231.311 128.974 241.56C115.311 252.619 101.502 263.566 89.8527 276.5C81.4905 285.785 73.1777 295.076 66.6405 305.54C64.5219 308.705 62.8875 312.384 61.828 316.373C60.9472 320.184 62.4357 321.819 66.8009 322.183C71.6026 322.483 76.4063 321.644 80.985 319.706C86.8064 317.422 92.5021 314.609 98.0317 311.289C120.978 297.438 141.789 281.095 163.343 265.628C186.168 249.247 208.462 232.257 231.516 216.16C248.116 204.66 265.142 194.268 282.527 185.023C285.323 183.526 288.194 181.488 291.383 181.642C296.811 181.726 302.151 179.828 306.818 176.156C310.332 173.75 314.713 172.994 318.303 170.792C319.484 169.962 320.86 169.759 322.15 170.226C326.746 172.677 329.662 169.941 332.912 167.775C337.551 164.856 341.893 161.173 345.835 156.813C356.296 144.668 369.232 134.511 380.092 122.682C395.139 106.294 408.641 88.994 417.541 69.0797C421.681 59.814 426.46 50.7955 429.571 41.1403C431.618 34.7805 435.926 29.3046 439.93 23.7983C441.754 21.3096 444.04 19.4999 446.559 18.5509C451.957 16.452 456.05 19.0384 455.036 24.2788C453.849 29.5644 451.814 34.4487 449.071 38.5983C438.445 55.8563 426.969 72.7225 417.574 90.6056C411.899 101.401 407.049 112.586 400.781 123.086C386.048 147.772 372.878 173.241 356.122 196.924C342.07 216.261 326.069 232.936 308.57 246.476C305.127 249.221 301.841 252.127 298.417 254.89C296.785 256.248 295.084 257.453 293.326 258.496C291.354 259.58 289.139 259.592 287.16 258.529C286.753 258.417 286.371 258.178 286.047 257.833C285.723 257.487 285.465 257.045 285.295 256.542C285.125 256.039 285.047 255.49 285.069 254.94C285.09 254.39 285.21 253.854 285.418 253.377C286.365 250.028 287.461 246.757 288.702 243.582C295.632 226.557 305.565 210.908 315.923 195.462C316.762 194.21 317.729 193.02 318.497 191.731C319.705 189.709 322.298 187.74 319.254 185.327C316.457 183.109 313.316 181.495 309.761 183.745C304.905 186.819 300.025 189.93 295.6 193.477C290.891 197.253 286.285 200.15 279.646 197.729C277.088 196.796 275.039 198.319 272.862 199.313C264.177 203.369 255.702 208.169 247.488 213.683C233.297 223.012 219.014 232.341 206.229 243.216C179.266 266.176 149.38 285.918 120.814 307.105C109.853 315.361 98.3359 322.252 86.4124 327.689C79.1 331.061 71.3243 332.304 63.6159 331.334C53.0131 329.935 49.1183 324.688 51.6003 315.389C52.5831 311.961 53.9372 308.74 55.6202 305.827C65.1327 288.614 78.4219 274.024 92.9654 260.084C111.106 243.07 130.208 227.926 150.102 214.786C169.336 202.134 189.483 192.076 210.238 184.764C218.161 181.471 226.634 181.275 234.639 184.198C241.064 186.74 242.122 190.317 237.364 194.783C230.727 201.297 223.654 206.996 216.234 211.808C214.01 213.367 211.648 214.557 209.204 215.351C204.453 216.704 199.822 218.712 195.386 221.34C190.351 224.373 184.86 225.846 179.33 225.647C177.413 225.528 175.34 225.414 174.672 223.434C174.056 221.599 175.292 220.169 176.633 218.893C177.819 217.65 179.255 216.896 180.762 216.725C186.478 216.384 190.738 213.212 195.418 210.845C197.981 209.312 200.658 208.135 203.405 207.333C213.412 205.11 219.559 198.303 225.972 191.558M333.683 185.961C343.15 178.589 348.28 172.684 350.351 165.956C343.704 170.826 338.01 177.689 333.724 185.994C329.168 190.012 325.086 194.901 321.611 200.502C316.908 208.452 311.85 216.23 307.087 224.15C303.289 230.517 299.974 237.363 297.187 244.589C311.445 236.595 340.863 205.696 348.676 194.214C368.111 165.627 382.192 140.178 381.654 133.613C372.307 140.243 365.436 148.413 357.521 155.596C356.031 156.949 357.25 158.08 358.324 159.328C363.008 164.762 363.285 168.241 358.888 173.661C355.227 178.174 351.061 182.355 347.031 186.616C345.327 188.418 343.377 189.769 341.288 190.597C336.532 192.498 334.77 191.423 333.683 185.975" fill="#6C6BFB" fill-opacity="0.1"/>
</svg>
