 <svg
              width="1em"
              height="1em"
              viewBox="0 0 64 65"
              fill="none"
              xmlns="http://www.w3.org/2000/svg"
            >
              <path
                d="M32.9789 33.2275V48.33C32.9789 49.0485 32.693 49.7376 32.184 50.2457C31.675 50.7537 30.9846 51.0392 30.2647 51.0392C29.5449 51.0392 28.8545 50.7537 28.3455 50.2457C27.8365 49.7376 27.5505 49.0485 27.5505 48.33V33.2275C27.5505 32.509 27.8365 31.82 28.3455 31.3119C28.8545 30.8039 29.5449 30.5184 30.2647 30.5184C30.9846 30.5184 31.675 30.8039 32.184 31.3119C32.693 31.82 32.9789 32.509 32.9789 33.2275Z"
                fill="#6C6BFB"
              ></path>
              <path
                d="M11.3901 51.0395C10.6702 51.0395 9.97986 50.7541 9.47085 50.246C8.96184 49.738 8.67589 49.0489 8.67589 48.3304V15.2917C8.6351 14.9137 8.67451 14.5313 8.79153 14.1695C8.90856 13.8076 9.10059 13.4744 9.35513 13.1915C9.60968 12.9086 9.92103 12.6824 10.2689 12.5275C10.6169 12.3726 10.9935 12.2926 11.3745 12.2926C11.7554 12.2926 12.1321 12.3726 12.48 12.5275C12.8279 12.6824 13.1393 12.9086 13.3938 13.1915C13.6484 13.4744 13.8404 13.8076 13.9574 14.1695C14.0745 14.5313 14.1139 14.9137 14.0731 15.2917V48.3304C14.0772 48.6847 14.0109 49.0363 13.8779 49.3648C13.7449 49.6933 13.5479 49.9922 13.2984 50.2442C13.0488 50.4962 12.7516 50.6962 12.4241 50.8327C12.0965 50.9693 11.7451 51.0395 11.3901 51.0395Z"
                fill="#6C6BFB"
              ></path>
              <path
                d="M58.0871 37.7719L58.0871 29.2086C58.0463 28.8306 58.0857 28.4482 58.2028 28.0864C58.3198 27.7245 58.5118 27.3913 58.7664 27.1084C59.0209 26.8255 59.3323 26.5993 59.6802 26.4444C60.0281 26.2895 60.4048 26.2095 60.7857 26.2095C61.1667 26.2095 61.5433 26.2895 61.8912 26.4444C62.2392 26.5993 62.5505 26.8255 62.8051 27.1084C63.0596 27.3913 63.2516 27.7245 63.3687 28.0864C63.4857 28.4482 63.5251 28.8306 63.4843 29.2086L63.4843 40.7301C63.4843 42.3158 62.8532 43.8365 61.7299 44.9577C60.6066 46.079 59.083 46.7089 57.4943 46.7089L45.9512 46.7089C45.2855 46.6373 44.6698 46.3227 44.2224 45.8255C43.7751 45.3283 43.5276 44.6836 43.5276 44.0153C43.5276 43.347 43.7751 42.7023 44.2224 42.2051C44.6698 41.7079 45.2855 41.3933 45.9512 41.3218L53.969 41.3218L17.3117 4.73324C16.8178 4.21754 16.5422 3.5316 16.5422 2.81818C16.5422 2.10475 16.8178 1.41881 17.3117 0.903118C17.555 0.628456 17.8523 0.406586 18.185 0.251252C18.5177 0.0959171 18.8788 0.0104298 19.246 8.05805e-05C19.5992 -0.00318855 19.9494 0.0639883 20.2762 0.197671C20.603 0.331353 20.8998 0.528848 21.149 0.778561L58.0871 37.7719Z"
                fill="#6C6BFB"
              ></path>
              <path
                d="M3.6534 59.1678H60.3084C60.6872 59.1271 61.0703 59.1664 61.4328 59.2832C61.7953 59.4 62.1291 59.5917 62.4126 59.8458C62.696 60.0998 62.9226 60.4106 63.0778 60.7579C63.233 61.1051 63.3132 61.4811 63.3132 61.8613C63.3132 62.2416 63.233 62.6175 63.0778 62.9648C62.9226 63.3121 62.696 63.6228 62.4126 63.8769C62.1291 64.131 61.7953 64.3226 61.4328 64.4394C61.0703 64.5562 60.6872 64.5956 60.3084 64.5549H3.6534C3.27464 64.5956 2.89154 64.5562 2.52901 64.4394C2.16648 64.3226 1.83266 64.131 1.54924 63.8769C1.26581 63.6228 1.03915 63.3121 0.883984 62.9648C0.728817 62.6175 0.648624 62.2416 0.648624 61.8613C0.648624 61.4811 0.728817 61.1051 0.883984 60.7579C1.03915 60.4106 1.26581 60.0998 1.54924 59.8458C1.83266 59.5917 2.16648 59.4 2.52901 59.2832C2.89154 59.1664 3.27464 59.1271 3.6534 59.1678Z"
                fill="#6C6BFB"
              ></path>
            </svg>