<svg
              width="1em"
              height="1em"
              viewBox="0 0 69 65"
              fill="none"
              xmlns="http://www.w3.org/2000/svg"
            >
              <path
                d="M57.4266 64.5696H11.7365C8.87144 64.5219 6.13994 63.35 4.13088 61.3068C2.12182 59.2636 0.996138 56.5126 0.996536 53.647V16.9105C0.997378 15.6533 1.27063 14.4112 1.79748 13.2697C2.53562 11.6468 3.72368 10.2698 5.22075 9.30177C6.71782 8.33378 8.46108 7.81548 10.2438 7.80835H10.4258C10.8561 7.80835 11.2822 7.89311 11.6797 8.05778C12.0773 8.22245 12.4385 8.46382 12.7427 8.7681C13.047 9.07238 13.2883 9.43361 13.453 9.83117C13.6177 10.2287 13.7024 10.6548 13.7024 11.0851C13.7024 11.5155 13.6177 11.9416 13.453 12.3391C13.2883 12.7367 13.047 13.0979 12.7427 13.4022C12.4385 13.7065 12.0773 13.9478 11.6797 14.1125C11.2822 14.2772 10.8561 14.3619 10.4258 14.3619H10.2438C9.70698 14.3428 9.17576 14.4763 8.71178 14.747C8.2478 15.0176 7.8701 15.4144 7.62252 15.8911C7.48403 16.2134 7.40983 16.5597 7.40408 16.9105V53.829C7.41342 54.3852 7.53347 54.9339 7.75723 55.4432C7.98098 55.9524 8.30396 56.412 8.70729 56.795C9.11063 57.178 9.58623 57.4768 10.1063 57.674C10.6264 57.8711 11.1806 57.9627 11.7365 57.9432H57.6087C58.7128 57.9336 59.7683 57.4883 60.5457 56.7041C61.323 55.9199 61.7591 54.8604 61.759 53.7562V18.8766C61.7638 18.3524 61.6647 17.8324 61.4675 17.3467C61.2702 16.861 60.9787 16.4192 60.6097 16.0469C60.2407 15.6745 59.8016 15.3789 59.3178 15.1772C58.8339 14.9755 58.3149 14.8716 57.7907 14.8717H47.4513C46.6371 14.786 45.8836 14.4019 45.3359 13.7934C44.7882 13.185 44.4851 12.3953 44.4851 11.5767C44.4851 10.758 44.7882 9.96832 45.3359 9.35989C45.8836 8.75146 46.6371 8.36736 47.4513 8.28166H57.6087C58.9982 8.28165 60.3741 8.55596 61.6574 9.08885C62.9408 9.62175 64.1063 10.4027 65.0871 11.3871C66.068 12.3714 66.8449 13.5396 67.3734 14.8249C67.9018 16.1101 68.1714 17.487 68.1666 18.8766V53.829C68.1197 56.663 66.9732 59.3678 64.9691 61.372C62.965 63.3761 60.2604 64.5228 57.4266 64.5696Z"
                fill="#FFCD00"
              ></path>
              <path
                d="M21.4935 21.2436C21.054 21.2486 20.6179 21.1651 20.2113 20.998C19.8047 20.831 19.4359 20.5839 19.1268 20.2713C18.8177 19.9588 18.5746 19.5873 18.412 19.1788C18.2495 18.7704 18.1707 18.3334 18.1805 17.894V2.96636C18.2662 2.15219 18.6503 1.39858 19.2587 0.850838C19.8671 0.303093 20.6567 0 21.4753 0C22.2939 0 23.0836 0.303093 23.6919 0.850838C24.3003 1.39858 24.6844 2.15219 24.7701 2.96636V17.894C24.7798 18.3304 24.7022 18.7643 24.5419 19.1703C24.3816 19.5763 24.1418 19.9462 23.8365 20.2582C23.5313 20.5702 23.1668 20.8181 22.7645 20.9874C22.3621 21.1566 21.93 21.2437 21.4935 21.2436Z"
                fill="#FFCD00"
              ></path>
              <path
                d="M47.5245 21.2436C47.0912 21.2484 46.6612 21.1672 46.2595 21.0047C45.8577 20.8421 45.4922 20.6015 45.1841 20.2968C44.8759 19.992 44.6313 19.6292 44.4644 19.2292C44.2975 18.8293 44.2115 18.4002 44.2115 17.9668V2.96636C44.2972 2.15219 44.6813 1.39858 45.2897 0.850838C45.8981 0.303093 46.6877 0 47.5063 0C48.3249 0 49.1146 0.303093 49.723 0.850838C50.3314 1.39858 50.7154 2.15219 50.8011 2.96636V17.894C50.8108 18.3304 50.7332 18.7643 50.5729 19.1703C50.4126 19.5763 50.1728 19.9462 49.8676 20.2582C49.5623 20.5702 49.1978 20.8181 48.7955 20.9874C48.3931 21.1566 47.961 21.2437 47.5245 21.2436Z"
                fill="#FFCD00"
              ></path>
              <path
                d="M37.4026 14.8715H24.3691C23.9073 14.9201 23.4405 14.8711 22.9989 14.7277C22.5573 14.5842 22.1507 14.3495 21.8056 14.0389C21.4606 13.7282 21.1846 13.3484 20.9958 12.9242C20.8069 12.5 20.7093 12.0409 20.7093 11.5765C20.7093 11.1122 20.8069 10.653 20.9958 10.2288C21.1846 9.80459 21.4606 9.42483 21.8056 9.11414C22.1507 8.80346 22.5573 8.56879 22.9989 8.42535C23.4405 8.2819 23.9073 8.2329 24.3691 8.28151H37.4026C38.2167 8.36721 38.9703 8.75131 39.518 9.35974C40.0657 9.96816 40.3688 10.7578 40.3688 11.5765C40.3688 12.3952 40.0657 13.1848 39.518 13.7933C38.9703 14.4017 38.2167 14.7858 37.4026 14.8715Z"
                fill="#FFCD00"
              ></path>
              <path
                d="M50.4724 36.5347H6.49333C5.52777 36.5347 4.60175 36.1511 3.919 35.4683C3.23624 34.7855 2.85268 33.8594 2.85268 32.8938C2.85268 31.9282 3.23624 31.0021 3.919 30.3193C4.60175 29.6365 5.52777 29.2529 6.49333 29.2529H50.4724C51.438 29.2529 52.364 29.6365 53.0467 30.3193C53.7295 31.0021 54.1131 31.9282 54.1131 32.8938C54.1131 33.8594 53.7295 34.7855 53.0467 35.4683C52.364 36.1511 51.438 36.5347 50.4724 36.5347Z"
                fill="#FFCD00"
              ></path>
            </svg>