 <svg
              width="1em"
              height="1em"
              viewBox="0 0 64 65"
              fill="none"
              xmlns="http://www.w3.org/2000/svg"
            >
              <path
                d="M62.9478 0.78247C62.4118 0.279838 61.7038 0 60.9682 0C60.2325 0 59.5246 0.279838 58.9886 0.78247L55.2606 4.5297C48.4754 4.57439 41.7595 5.89456 35.4647 8.42105C30.6255 10.4989 26.2748 13.5621 22.6913 17.4144L3.21336 20.1528C2.71511 20.2502 2.25139 20.4769 1.8689 20.8099C1.4864 21.143 1.19863 21.5707 1.03456 22.0499C0.870489 22.5292 0.835906 23.0431 0.934294 23.5399C1.03268 24.0368 1.26057 24.499 1.59501 24.88L13.1546 36.41L5.49639 43.8468C4.99246 44.3814 4.7119 45.0875 4.7119 45.8213C4.7119 46.555 4.99246 47.2612 5.49639 47.7958C6.03384 48.3068 6.74789 48.5919 7.49042 48.5919C8.23296 48.5919 8.947 48.3068 9.48446 47.7958L17.0271 40.3301L38.9615 62.2082C39.4972 62.7232 40.2115 63.0123 40.9556 63.0153C41.2606 63.0238 41.5645 62.9749 41.8514 62.8712C42.3411 62.6955 42.7741 62.3911 43.1047 61.9903C43.4353 61.5895 43.6513 61.1071 43.7299 60.594L46.6198 40.849C58.4973 30.155 59.3354 13.3501 59.3354 8.56518L63.0634 4.81795C63.5777 4.26418 63.8538 3.53124 63.8321 2.77665C63.8105 2.02206 63.493 1.30605 62.9478 0.78247ZM18.3565 23.6694C17.4569 25.3189 16.684 27.0341 16.0446 28.8002L15.4377 30.645L9.65785 24.88L18.3565 23.6694ZM38.9615 54.1949L32.9216 48.1993L34.8579 47.5652C36.7035 46.9288 38.492 46.1382 40.2042 45.2015L38.9615 54.1949ZM33.1817 42.2614L28.5868 43.7603L24.1941 39.4654L19.8881 35.1993L21.362 30.6738C22.6586 26.8228 24.7768 23.298 27.5706 20.3421C30.3645 17.3862 33.7676 15.0696 37.5455 13.5519C39.5457 12.6979 41.6145 12.0133 43.7299 11.5053C46.271 10.8709 48.8623 10.4562 51.4748 10.2658C52.284 10.2658 52.9776 10.2658 53.6134 10.2658C53.44 17.2703 51.2725 35.9776 33.0661 42.2614H33.1817Z"
                fill="#2DC302"
              ></path>
              <path
                d="M34.1354 22.5453C33.1912 23.4907 32.6611 24.7707 32.6611 26.1051C32.6611 27.4395 33.1912 28.7196 34.1354 29.665C35.1063 30.4709 36.3445 30.8852 37.6063 30.8264C38.8681 30.7676 40.0622 30.2399 40.9536 29.3472C41.845 28.4545 42.3692 27.2614 42.423 26.0026C42.4769 24.7438 42.0565 23.5105 41.2445 22.5453C40.2979 21.6123 39.0207 21.0891 37.69 21.0891C36.3592 21.0891 35.082 21.6123 34.1354 22.5453Z"
                fill="#2DC302"
              ></path>
              <path
                d="M14.8308 51.5429L6.16107 60.1904C5.82423 60.7436 5.68389 61.3939 5.76263 62.0363C5.84137 62.6788 6.13462 63.2762 6.59516 63.7322C7.05569 64.1882 7.65669 64.4764 8.30139 64.5502C8.94608 64.6241 9.59694 64.4794 10.1491 64.1394L18.8189 55.4919C19.1458 54.9413 19.2798 54.2977 19.1995 53.6627C19.1193 53.0277 18.8295 52.4374 18.3758 51.9849C17.9221 51.5323 17.3302 51.2433 16.6936 51.1632C16.057 51.0832 15.4118 51.2168 14.8597 51.5429H14.8308Z"
                fill="#2DC302"
              ></path>
            </svg>